<?xml version="1.0" standalone="no"?>
<!DOCTYPE svg PUBLIC "-//W3C//DTD SVG 1.1//EN" "http://www.w3.org/Graphics/SVG/1.1/DTD/svg11.dtd" >
<svg xmlns="http://www.w3.org/2000/svg">
<metadata>Generated by IcoMoon</metadata>
<defs>
<font id="uscl" horiz-adv-x="1024">
<font-face units-per-em="1024" ascent="960" descent="-64" />
<missing-glyph horiz-adv-x="1024" />
<glyph unicode="&#x20;" horiz-adv-x="512" d="" />
<glyph unicode="&#xe900;" glyph-name="arrow" d="M930.666 270.133l-4 5.334-362.666 417.335c-6.222 7.111-13.778 12.889-22.666 17.334s-18.666 6.666-29.334 6.666c-9.777 0-19.112-2.223-28-6.666s-16.445-9.777-22.666-16l-369.334-424c-1.777-3.555-3.334-7.334-4.666-11.334s-2-7.778-2-11.334c0-12.445 4.223-22.666 12.666-30.666s18.888-12 31.334-12h765.335c12.445 0 22.888 4 31.334 12s12.666 17.778 12.666 29.334c0 4.445-0.666 8.888-2 13.334s-3.334 8-6 10.666z" />
<glyph unicode="&#xe901;" glyph-name="fb" horiz-adv-x="495" d="M37.207 608.382h90.53v86.758c0 19.49 1.257 42.278 3.772 68.367s11.002 48.252 25.461 66.482c14.459 20.119 32.533 36.15 54.222 48.094s50.138 17.917 85.343 17.917c56.582 0 97.603-2.672 123.063-8.016s38.191-8.016 38.191-8.016l-22.633-132.966c0 0-7.701 1.728-23.104 5.187s-31.905 5.187-49.509 5.187c-17.604 0-33.006-3.459-46.208-10.374s-19.803-19.174-19.803-36.779v-101.845h143.337l-10.374-130.136h-133.907v-452.646h-167.856v452.646h-90.53z" />
<glyph unicode="&#xe902;" glyph-name="gPlus" d="M81.311 459.957c-1.123 35.375 5.195 69.348 18.951 101.917s32.569 61.487 56.433 86.756c23.864 25.269 51.8 45.625 83.807 61.066s65.699 23.443 101.074 24.005c35.938 2.807 70.892-2.106 104.864-14.739s64.435-30.182 91.387-52.643c-10.669-12.354-21.759-24.567-33.271-36.639s-23.443-24.005-35.797-35.797c-24.146 14.599-50.117 26.111-77.912 34.533s-55.731 7.58-83.807-2.526c-23.021-6.177-43.236-17.127-60.644-32.849s-31.305-33.833-41.694-54.328c-10.388-20.495-16.705-42.395-18.951-65.699s0.843-46.186 9.266-68.646c6.738-23.021 18.39-43.236 34.954-60.644s35.516-30.883 56.854-40.43c21.338-9.546 43.939-14.88 67.803-16.003s46.746 3.088 68.646 12.634c23.021 8.423 41.974 22.18 56.854 41.272s25.69 40.149 32.428 63.171c-26.391 0-52.643 0-78.754 0s-52.362 0.562-78.754 1.685c0 15.161 0 30.603 0 46.326s0 31.164 0 46.326c43.798 0.562 87.456 0.843 130.976 0.843s87.176-0.281 130.976-0.843c2.807-38.184 0.562-76.648-6.738-115.393s-23.584-73.279-48.853-103.6c-16.846-21.9-36.92-40.008-60.223-54.328s-48.151-24.707-74.543-31.164c-26.391-6.457-53.345-9.125-80.859-8.002s-53.907 5.896-79.174 14.319c-27.515 8.985-52.643 22.18-75.384 39.587s-42.395 37.623-58.959 60.644c-16.565 23.021-29.34 48.151-38.324 75.384s-13.197 55.169-12.634 83.807zM787.145 577.877c12.915 0 25.831 0 38.745 0s26.111 0 39.587 0c0-13.477 0-26.672 0-39.587s0-25.831 0-38.745c12.915 0 25.971-0.141 39.166-0.421s26.251-0.421 39.166-0.421c0-12.915 0-25.831 0-38.745s0-25.831 0-38.745c-12.915-0.562-25.971-0.843-39.166-0.843s-26.251 0-39.166 0c0-12.915 0-25.971 0-39.166s0-26.251 0-39.166c-13.477 0-26.672 0-39.587 0s-25.831 0-38.745 0c0 12.915 0 25.971 0 39.166s-0.281 26.251-0.843 39.166c-12.915 0-25.831 0-38.745 0s-25.831 0.281-38.745 0.843c0 12.915 0 25.831 0 38.745s0 25.831 0 38.745c12.915 0 25.831 0 38.745 0s25.831 0.281 38.745 0.843c0.562 12.915 0.843 25.831 0.843 38.745s0 26.111 0 39.587z" />
<glyph unicode="&#xe903;" glyph-name="lj" d="M540.989 862.624c-30.653 0-60.308-3.165-88.962-9.495s-55.975-15.161-81.964-26.488l-94.959 94.959c-25.322-11.329-49.146-24.656-71.469-39.983s-42.981-32.485-61.973-51.477c-18.992-18.992-36.152-39.816-51.477-62.472s-28.322-46.313-38.983-70.969l94.959-94.959c10.663 25.322 23.657 49.146 38.983 71.469s32.485 42.981 51.477 61.973c18.992 18.992 39.649 36.317 61.973 51.977s46.146 28.821 71.469 39.483l350.847-350.847c-40.65-17.991-77.8-41.481-111.451-70.469s-61.806-62.472-84.464-100.456c-5.331-8.663-10.328-17.325-14.993-25.988s-8.996-17.659-12.994-26.989l-350.847 349.848c-11.329-25.988-20.158-53.31-26.488-81.964s-9.495-58.309-9.495-88.962c0-59.307 11.162-115.117 33.486-167.427s52.977-97.958 91.96-136.94c38.983-38.983 84.796-69.803 137.439-92.459s108.62-33.985 167.928-33.985c59.974 0 116.116 11.329 168.427 33.985s97.958 53.477 136.94 92.459c38.983 38.983 69.803 84.629 92.459 136.94s33.985 108.119 33.985 167.427c0 59.974-11.329 116.116-33.985 168.427s-53.477 97.958-92.459 136.94c-38.983 38.983-84.629 69.803-136.94 92.459s-108.453 33.985-168.427 33.985zM615.956 225.901c12.662 29.32 30.321 55.309 52.977 77.967s48.312 40.315 76.966 52.977v0l33.985-164.928z" />
<glyph unicode="&#xe904;" glyph-name="mail" d="M345.776 598.663c21.898 0 40.479 7.797 55.741 23.391s22.893 34.009 22.893 55.243c0 21.898-7.631 40.479-22.893 55.741s-33.842 22.893-55.741 22.893c-21.898 0-40.479-7.631-55.741-22.893s-22.893-33.842-22.893-55.741c0-21.234 7.631-39.65 22.893-55.243s33.842-23.391 55.741-23.391zM679.227 598.663c21.234 0 39.65 7.797 55.243 23.391s23.391 34.009 23.391 55.243c0 21.898-7.797 40.479-23.391 55.741s-34.009 22.893-55.243 22.893c-21.898 0-40.479-7.631-55.741-22.893s-22.893-33.842-22.893-55.741c0-21.234 7.631-39.65 22.893-55.243s33.842-23.391 55.741-23.391zM940.017 270.186l-98.542 168.219c-5.972 11.281-15.262 18.579-27.87 21.898s-24.553 1.659-35.834-4.976c-11.281-6.635-18.579-16.258-21.898-28.866s-1.659-24.553 4.976-35.834l10.948-19.907c-33.842-35.169-73.161-62.377-117.954-81.621s-92.072-28.866-141.841-28.866c-49.769 0-97.050 9.621-141.841 28.866s-84.109 46.451-117.954 81.621l10.948 19.907c6.635 11.281 8.295 23.225 4.976 35.834s-10.618 22.23-21.898 28.866c-11.281 6.635-23.060 8.295-35.337 4.976s-21.732-10.618-28.368-21.898l-98.542-168.219c-6.635-11.281-8.295-23.060-4.976-35.337s10.618-21.732 21.898-28.368c3.982-2.655 7.963-4.479 11.945-5.474s7.963-1.493 11.945-1.493c7.963 0 15.594 1.99 22.893 5.972s13.273 9.954 17.917 17.917l36.828 63.704c21.234-19.907 43.797-37.326 67.687-52.257s48.94-27.538 75.15-37.824c26.211-10.286 53.254-18.082 81.123-23.391s56.405-7.963 85.604-7.963c28.535 0 56.903 2.655 85.106 7.963s55.41 13.105 81.621 23.391c26.211 10.286 51.261 23.060 75.15 38.322s46.12 32.516 66.691 51.759l37.824-63.704c3.982-7.963 9.788-13.935 17.419-17.917s15.429-5.972 23.391-5.972c3.982 0 7.963 0.498 11.945 1.493s7.963 2.819 11.945 5.474c11.281 6.635 18.579 16.092 21.898 28.368s1.659 24.055-4.976 35.337z" />
<glyph unicode="&#xe905;" glyph-name="ok" horiz-adv-x="624" d="M312.001 455.614c30.805 0 59.567 5.658 86.284 16.974s49.98 27.034 69.783 47.149c19.803 20.119 35.521 43.535 47.149 70.253s17.446 55.166 17.446 85.343c0 30.177-5.815 58.624-17.446 85.343s-27.346 50.138-47.149 70.253c-19.803 20.119-43.065 35.992-69.783 47.623s-55.48 17.446-86.284 17.446c-30.177 0-58.624-5.815-85.343-17.446s-49.98-27.504-69.783-47.623c-19.803-20.119-35.521-43.535-47.149-70.253s-17.446-55.166-17.446-85.343c0-30.177 5.815-58.624 17.446-85.343s27.346-50.137 47.149-70.253c19.803-20.119 43.065-35.834 69.783-47.149s55.166-16.974 85.343-16.974zM312.001 783.782c30.177 0 55.795-10.531 76.855-31.592s31.592-46.679 31.592-76.855c0-30.177-10.531-55.795-31.592-76.855s-46.679-31.592-76.855-31.592c-29.548 0-54.851 10.531-75.913 31.592s-31.592 46.679-31.592 76.855c0 29.548 10.531 55.009 31.592 76.384s46.366 32.062 75.913 32.062zM565.67 428.268c-6.286 12.572-17.446 21.847-33.478 27.82s-35.676-0.158-58.938-18.388c-30.805-24.519-65.382-38.664-103.731-42.436s-57.523-5.658-57.523-5.658c0 0-19.174 1.886-57.523 5.658s-72.926 17.917-103.731 42.436c-22.633 18.232-42.12 24.361-58.467 18.388s-27.662-15.245-33.948-27.82c-11.315-22.005-11.473-39.764-0.471-53.281s30.335-29.077 57.995-46.679c23.89-15.087 50.294-25.933 79.212-32.533s54.067-11.16 75.44-13.675l-34.892-33.948c-24.519-25.148-48.094-49.036-70.727-71.668s-42.436-42.12-59.409-58.467c-9.429-10.058-14.145-22.005-14.145-35.834s4.716-25.776 14.145-35.834l6.602-5.658c9.429-10.058 21.218-15.087 35.363-15.087s26.247 5.029 36.305 15.087l129.192 129.192c24.519-24.519 48.094-48.094 70.727-70.727s42.12-42.12 58.467-58.467c10.058-10.058 22.005-15.087 35.834-15.087s25.776 5.029 35.834 15.087l6.602 5.658c9.429 10.058 14.145 22.005 14.145 35.834s-4.716 25.776-14.145 35.834l-165.027 164.084c20.747 2.514 45.579 7.073 74.499 13.675s55.009 17.446 78.27 32.533c27.662 17.603 46.994 33.162 57.995 46.679s10.844 31.276-0.471 53.281z" />
<glyph unicode="&#xe906;" glyph-name="print" d="M887.727 677.929h-103.845v218.071h-543.763v-218.071h-103.845c-15.734 0-29.58-5.823-41.539-17.466s-17.937-25.645-17.937-42.010v-370.063c0-16.363 5.978-30.367 17.937-42.010s25.803-17.466 41.539-17.466h103.845v-163.318h543.763v163.318h102.9c16.363 0 30.524 5.823 42.481 17.466s17.937 25.645 17.937 42.010v370.063c0 16.363-5.823 30.367-17.466 42.010s-25.645 17.466-42.010 17.466zM294.871 841.247h434.257v-163.318h-434.257zM729.129 79.411h-434.257v299.26h434.257zM892.447 253.113c0-2.518-0.788-3.935-2.36-4.248s-2.36-0.471-2.36-0.471h-103.845v185.031h-543.763v-190.696h-103.845c0 0-0.788 1.101-2.36 3.305s-2.36 4.564-2.36 7.081v365.34c0 2.518 0.788 4.090 2.36 4.719s2.36 0.944 2.36 0.944h745.786c2.518 0 4.877-0.315 7.081-0.944s3.305-2.202 3.305-4.719v-365.34zM783.882 569.364h-27.378c-7.553 0-13.847-2.518-18.88-7.553s-7.553-11.643-7.553-19.825c0-5.665 2.518-11.643 7.553-17.937s11.33-9.441 18.88-9.441h27.378c8.182 0 14.79 2.518 19.825 7.553s7.553 11.643 7.553 19.825c0 8.182-2.518 14.79-7.553 19.825s-11.643 7.553-19.825 7.553z" />
<glyph unicode="&#xe907;" glyph-name="email" horiz-adv-x="1365" d="M1059.098 844.801h-753.383c-69.791 0-126.593-56.753-126.593-126.548v-514.861c0-69.791 56.798-126.593 126.593-126.593h753.611c69.745 0 126.548 56.798 126.548 126.593 0 1.718-0.095 3.385-0.233 5.107v509.753c0 69.791-56.753 126.548-126.548 126.548zM1059.098 784.477c36.518 0 66.218-29.699 66.218-66.218v-514.861h0.233c0-36.518-29.699-66.263-66.218-66.263h-753.611c-36.518 0-66.263 29.745-66.263 66.263v514.861c0 36.518 29.745 66.218 66.263 66.218h753.383zM748.523 488.74l-86.062-76.808 40.178-0.008-360.983 322.418c-12.427 11.095-31.493 10.021-42.591-2.405s-10.021-31.493 2.405-42.591l248.378-221.843-248.9-232.943c-12.161-11.382-12.794-30.473-1.412-42.636s30.473-12.794 42.636-1.412l252.848 236.644 67.433-60.233c11.44-10.222 28.733-10.223 40.178-0.008l67.69 60.413 252.86-236.788c12.158-11.387 31.25-10.763 42.637 1.402s10.763 31.25-1.402 42.637l-248.903 233.086 248.378 221.678c12.428 11.093 13.51 30.158 2.422 42.59s-30.158 13.51-42.59 2.422l-270.77-241.658c-1.509-1.103-2.94-2.363-4.268-3.773-0.054-0.060-0.113-0.121-0.169-0.181z" />
<glyph unicode="&#xe908;" glyph-name="spoiler" d="M278.945 460.8c0-20.005-7.169-37.176-21.505-51.512s-31.508-21.505-51.512-21.505c-20.005 0-37.176 7.169-51.512 21.505s-21.505 31.508-21.505 51.512c0 20.005 7.169 37.176 21.505 51.512s31.508 21.505 51.512 21.505c20.005 0 37.176-7.169 51.512-21.505s21.505-31.508 21.505-51.512zM891.090 460.8c0-20.005-7.169-37.176-21.505-51.512s-31.508-21.505-51.512-21.505c-20.005 0-37.176 7.169-51.512 21.505s-21.505 31.508-21.505 51.512c0 20.005 7.169 37.176 21.505 51.512s31.508 21.505 51.512 21.505c20.005 0 37.176-7.169 51.512-21.505s21.505-31.508 21.505-51.512zM585.018 460.8c0-20.005-7.169-37.176-21.505-51.512s-31.508-21.505-51.512-21.505c-20.005 0-37.176 7.169-51.512 21.505s-21.505 31.508-21.505 51.512c0 20.005 7.169 37.176 21.505 51.512s31.508 21.505 51.512 21.505c20.005 0 37.176-7.169 51.512-21.505s21.505-31.508 21.505-51.512z" />
<glyph unicode="&#xe909;" glyph-name="twi" d="M960.882 739.21c-16.812-7.398-33.961-13.619-51.444-18.661s-35.641-8.574-54.473-10.591c18.829 11.432 35.306 25.891 49.427 43.376s24.545 36.988 31.271 58.506c-17.485-10.761-36.146-20.007-55.984-27.741s-40.181-13.619-61.029-17.653c-16.812 18.158-36.819 32.447-60.021 42.87s-47.916 15.636-74.143 15.636c-51.11 0-94.485-17.988-130.126-53.967s-53.463-79.185-53.463-129.622c0-7.398 0.336-14.627 1.009-21.687s1.682-13.955 3.026-20.679c-37.66 2.017-74.477 7.902-110.456 17.653s-69.938 22.866-101.882 39.34c-31.942 16.476-62.038 36.146-90.281 59.011s-53.463 48.419-75.654 76.664c-8.071-14.122-14.459-28.917-19.167-44.384s-7.062-31.607-7.062-48.419c0-31.607 7.565-60.86 22.696-87.759s35.138-48.755 60.021-65.568c-15.468 0.673-30.262 3.026-44.384 7.062s-27.235 9.414-39.34 16.139c0-0.673 0-1.176 0-1.514s0-0.841 0-1.514c0-44.384 14.122-83.389 42.368-117.013s63.214-54.473 104.908-62.54c-7.398-2.017-15.131-3.531-23.2-4.539s-16.476-1.514-25.218-1.514c-5.38 0-11.096 0.167-17.148 0.505s-11.77 1.176-17.148 2.523c11.432-36.988 32.951-67.417 64.558-91.29s67.248-36.146 106.926-36.819c-30.934-24.883-65.904-44.217-104.908-58.001s-80.025-20.679-123.064-20.679c-7.398 0-14.795 0.167-22.193 0.505s-14.795 1.176-22.193 2.523c41.021-26.227 85.238-46.569 132.649-61.029s97.343-21.687 149.796-21.687c84.060 0 158.707 15.804 223.939 47.411s120.039 72.461 164.423 122.561c44.384 50.101 77.84 106.252 100.369 168.457s33.792 123.57 33.792 184.093c0 4.034 0 8.071 0 12.105s0 8.071 0 12.105c18.158 13.449 35.138 28.076 50.941 43.879s29.757 33.121 41.863 51.95z" />
<glyph unicode="&#xe90a;" glyph-name="vk" d="M499.89 223.728h50.302c0 0 2.794 0.621 8.383 1.864s10.247 4.037 13.973 8.383c3.725 3.725 5.899 8.383 6.522 13.973s0.932 8.383 0.932 8.383c0 0 1.086 11.489 3.26 34.467s11.022 36.951 26.548 41.918c15.526 4.969 32.914-5.744 52.165-32.137s39.125-46.732 59.617-61.014c15.526-10.557 28.722-15.991 39.59-16.302s16.302-0.466 16.302-0.466l110.851 1.864c0 0 8.694 2.484 26.083 7.452s18.942 18.942 4.658 41.918c-0.621 1.864-6.21 10.557-16.767 26.083s-32.603 38.813-66.138 69.863c-34.776 32.293-49.992 54.028-45.644 65.206s27.635 45.023 69.863 101.536c25.461 34.156 43.471 61.792 54.028 82.906s14.284 36.019 11.179 44.713c-3.105 8.694-11.179 13.041-24.22 13.041s-19.562 0-19.562 0l-125.756-0.932c0 0-1.864 0-5.59 0s-7.142-0.932-10.247-2.794c-3.725-2.484-6.522-5.434-8.383-8.85s-2.794-5.123-2.794-5.123c0 0-4.503-10.713-13.507-32.137s-20.028-43.316-33.068-65.671c-27.945-47.196-48.44-75.453-61.48-84.768s-21.735-12.42-26.083-9.315c-10.557 6.831-15.837 18.942-15.837 36.328s0 33.535 0 48.44c0 45.955 0.621 79.644 1.864 101.071s-8.383 34.621-28.877 39.59c-6.831 1.242-13.973 2.484-21.425 3.725s-19.872 1.864-37.26 1.864c-22.356 0-42.695-0.466-61.014-1.398s-32.758-4.192-43.316-9.781c-6.831-3.105-12.42-7.608-16.767-13.507s-4.969-9.161-1.864-9.781c4.346-0.621 10.401-2.174 18.165-4.658s14.127-7.142 19.096-13.973c6.21-8.694 9.781-20.337 10.713-34.933s1.398-21.89 1.398-21.89c0 0 0.311-18.63 0.932-55.891s-5.278-58.995-17.698-65.206c-8.694-4.969-19.717-1.086-33.068 11.645s-32.449 40.521-57.288 83.371c-13.041 22.356-23.753 43.471-32.137 63.344s-12.575 29.81-12.575 29.81c0 0-0.932 1.707-2.794 5.123s-4.346 6.365-7.452 8.85c-4.346 3.105-8.694 5.278-13.041 6.522s-6.522 1.864-6.522 1.864l-119.234-0.932c0 0-3.26-0.466-9.781-1.398s-11.334-3.26-14.438-6.987c-3.105-3.725-4.037-8.229-2.794-13.507s1.864-7.917 1.864-7.917c0 0 5.434-11.954 16.302-35.863s25.461-53.097 43.782-87.563c18.32-34.467 39.59-70.485 63.81-108.056s49.371-70.020 75.453-97.345c48.44-50.924 95.015-79.49 139.729-85.7s67.070-9.315 67.070-9.315z" />
<glyph unicode="&#xe90b;" glyph-name="pinterest" horiz-adv-x="803" d="M421.869 870.398c-237.032 0-356.558-169.931-356.558-311.67 0-85.803 32.486-162.133 102.15-190.554 11.427-4.71 21.667-0.174 24.982 12.474 2.304 8.725 7.763 30.813 10.19 40.042 3.331 12.509 2.042 16.872-7.187 27.81-20.082 23.674-32.938 54.346-32.938 97.826 0 126.070 94.334 238.933 245.632 238.933 133.973 0 207.581-81.861 207.581-191.163 0-143.866-63.662-265.277-158.155-265.277-52.2 0-91.246 43.146-78.754 96.096 14.986 63.21 44.037 131.39 44.037 177.050 0 40.826-21.931 74.882-67.275 74.882-53.354 0-96.219-55.202-96.219-129.125 0-47.090 15.912-78.946 15.912-78.946s-54.59-231.346-64.168-271.856c-19.051-80.691-2.862-179.581-1.483-189.558 0.803-5.931 8.41-7.363 11.862-2.898 4.904 6.437 68.478 84.878 90.059 163.285 6.125 22.176 35.085 137.114 35.085 137.114 17.342-33.078 68.010-62.144 121.882-62.144 160.354 0 269.17 146.187 269.17 341.869 0.018 148-125.318 285.813-315.803 285.813z" />
<glyph unicode="&#xe90c;" glyph-name="bookmarks" d="M509.006 841.653l103.824-211.642 16.972-39.931 38.934-5.99 240.592-33.943-199.661-200.66 4.992-39.931 39.931-234.601-211.642 108.815-33.943 22.962-39.931-16.972-211.642-108.815 39.931 234.601 4.992 39.931-22.962 28.95-170.709 171.708 234.601 33.943 39.931 4.992 22.962 34.94zM509.006 892.567c-11.314 0-22.962-2.828-34.94-8.485s-19.302-14.142-21.963-25.457l-108.815-211.642-234.601-33.943c-11.314 0-21.963-3.826-31.946-11.48s-16.305-17.138-18.967-28.452c-3.329-11.314-3.495-22.461-0.499-33.443s8.818-20.798 17.47-29.45l171.708-171.708-39.931-235.6c-2.662-11.314-1.497-22.461 3.495-33.443s13.145-20.466 24.459-28.452c5.99-3.329 12.147-6.156 18.469-8.485s13.477-3.495 21.463-3.495c5.99 0 11.814 0.166 17.47 0.499s11.48 2.163 17.47 5.49l199.661 107.816 205.652-107.816c5.99-3.329 11.814-5.158 17.47-5.49s11.48-0.499 17.47-0.499c5.324 0 11.814 1.165 19.468 3.495s14.476 5.158 20.466 8.485c11.314 5.324 18.801 14.142 22.461 26.454s5.49 24.127 5.49 35.44l-39.931 235.6 171.708 170.709c8.652 8.652 14.476 18.469 17.47 29.45s2.828 22.13-0.499 33.443c-2.662 11.314-8.984 20.798-18.967 28.452s-20.632 11.48-31.946 11.48l-240.592 33.943-108.815 212.639c-5.324 11.314-13.311 19.8-23.959 25.457s-21.631 8.485-32.945 8.485z" />
<glyph unicode="&#xe90d;" glyph-name="like" d="M890.836 619.731c-17.991 4.665-47.646 7.497-88.962 8.496s-92.96 2.499-154.933 4.498c2.666 13.328 4.498 26.989 5.498 40.982s1.5 31.653 1.5 52.977c0 51.977-15.327 97.458-45.981 136.441s-62.639 58.474-95.958 58.474c-23.323 0-43.48-8.496-60.473-25.489s-25.489-37.15-25.489-60.473c-0.666-29.32-7.997-65.138-21.99-107.453s-45.315-76.133-93.959-101.456c-3.332-1.999-8.829-4.832-16.493-8.496s-12.161-5.831-13.493-6.497l1.999-0.999c-7.997 5.998-16.993 11.329-26.989 15.993s-20.325 6.996-30.987 6.996h-85.962c-23.989 0-44.481-8.496-61.474-25.489s-25.489-37.485-25.489-61.474v-460.8c0-23.323 8.496-43.48 25.489-60.473s37.485-25.489 61.474-25.489h85.962c17.325 0 32.653 4.665 45.981 13.995s23.657 21.323 30.987 35.985c0 0 0.167-0.167 0.499-0.499s0.499-0.499 0.499-0.499c1.333 0 2.499-0.167 3.499-0.499s2.166-0.499 3.499-0.499c0-0.666 0.167-0.999 0.499-0.999s0.499 0 0.499 0c8.663-1.999 21.825-4.997 39.483-8.996s43.48-9.996 77.466-17.991c7.331-1.999 27.82-5.831 61.474-11.494s70.469-8.496 110.453-8.496h157.931c23.989 0 44.481 4.665 61.474 13.995s30.82 23.323 41.481 41.982c0 0 1.333 2.833 3.999 8.496s5.331 13.161 7.997 22.491c1.999 5.998 3.165 13.493 3.499 22.491s-0.499 18.158-2.499 27.488c15.327 10.663 26.155 23.157 32.485 37.485s11.162 26.822 14.494 37.485c5.331 16.659 7.663 31.487 6.996 44.481s-2.998 24.156-6.996 33.486c8.663 7.997 16.493 18.493 23.49 31.487s12.161 29.153 15.493 48.479c1.999 11.329 1.999 22.991 0 34.984s-5.998 22.99-11.996 32.985c8.663 9.33 14.826 19.491 18.493 30.486s5.831 21.825 6.497 32.485v5.998c0.666 1.999 0.999 3.831 0.999 5.498s0 4.498 0 8.496c0 17.991-6.664 36.983-19.991 56.976s-33.985 33.985-61.973 41.982zM253.114 85.963c0-7.997-2.833-14.661-8.496-19.991s-12.495-7.997-20.492-7.997h-85.962c-7.997 0-14.826 2.666-20.492 7.997s-8.496 11.996-8.496 19.991v460.8c0 7.997 2.833 14.826 8.496 20.492s12.495 8.496 20.492 8.496h85.962c7.997 0 14.826-2.833 20.492-8.496s8.496-12.495 8.496-20.492zM914.826 502.782c-0.666-7.331-4.166-16.159-10.496-26.488s-21.825-15.493-46.48-15.493c-21.99 0-37.15 0-45.48 0s-12.495 0-12.495 0c-3.999 0-7.331-1.5-9.996-4.498s-3.998-6.497-3.998-10.496c0-3.998 1.333-7.331 3.998-9.996s5.998-3.998 9.996-3.998c0 0 3.831 0 11.494 0s22.491 0 44.481 0c21.323 0 34.652-6.664 39.983-19.991s7.331-24.323 5.998-32.985c-1.999-10.663-6.831-23.657-14.494-38.983s-23.49-22.99-47.479-22.99c-24.656 0-42.315 0-52.977 0s-15.993 0-15.993 0c-3.999 0-7.331-1.5-9.996-4.498s-3.999-6.497-3.999-10.496c0-3.998 1.333-7.331 3.999-9.996s5.998-3.998 9.996-3.998c0 0 6.664 0 19.991 0s25.656 0 36.983 0c23.989 0 36.983-7.164 38.983-21.491s1.333-26.822-1.999-37.485c-4.665-14.661-10.828-27.655-18.493-38.983s-26.822-16.993-57.475-16.993c-9.996 0-20.325 0-30.987 0s-15.993 0-15.993 0c-3.998 0-7.331-1.5-9.996-4.498s-3.998-6.497-3.998-10.496c0-3.998 1.333-7.331 3.998-9.996s5.998-3.998 9.996-3.998c0 0 4.331 0 12.994 0s19.324 0 31.986 0c15.993 0 25.489-5.331 28.487-15.993s3.499-18.658 1.5-23.989c-1.999-5.998-3.831-10.995-5.498-14.993s-2.499-5.998-2.499-5.998c-3.999-7.997-9.996-14.16-17.991-18.493s-19.324-6.497-33.985-6.497h-157.931c-39.317 0-75.466 2.998-108.453 8.996s-49.812 8.996-50.479 8.996c-59.974 13.995-96.291 22.491-108.953 25.489s-20.991 5.164-24.99 6.497c0 0-3.999 1.5-11.996 4.498s-11.996 9.829-11.996 20.492v397.827c0 6.664 1.999 12.827 5.998 18.493s9.33 9.495 15.993 11.494c1.333 0.666 2.499 1.166 3.499 1.5s1.832 0.499 2.499 0.499c33.319 13.995 60.974 31.32 82.964 51.977s39.649 43.315 52.977 67.971c13.328 24.656 22.823 49.977 28.487 75.968s8.496 51.31 8.496 75.968c0 7.331 2.499 13.995 7.497 19.991s12.161 8.996 21.491 8.996c15.327 0 33.152-13.328 53.477-39.983s30.486-58.975 30.486-96.957c0-33.985-1.333-58.808-3.999-74.468s-9.996-41.149-21.99-76.467c143.937 0 228.568-0.999 253.89-2.998s44.314-4.665 56.976-7.997c15.993-4.665 25.656-11.996 28.988-21.99s4.997-17.325 4.997-21.99c0-4.665 0-7.663 0-8.996s0-4.331 0-8.996zM181.145 172.925c-11.996 0-22.157-4.331-30.486-12.994s-12.495-18.658-12.495-29.987c0-11.996 4.166-22.324 12.495-30.987s18.493-12.994 30.486-12.994c11.996 0 22.157 4.331 30.486 12.994s12.495 18.992 12.495 30.987c0 11.329-4.166 21.323-12.495 29.987s-18.493 12.994-30.486 12.994zM181.145 114.95c-3.998 0-7.497 1.5-10.496 4.498s-4.498 6.497-4.498 10.496c0 3.999 1.5 7.331 4.498 9.996s6.497 3.999 10.496 3.999c3.999 0 7.331-1.333 9.996-3.999s3.999-5.998 3.999-9.996c0-3.998-1.333-7.497-3.999-10.496s-5.998-4.498-9.996-4.498z" />
<glyph unicode="&#xe90e;" glyph-name="close" horiz-adv-x="1019" d="M945.789 898.202c-15.581 15.581-33.946 23.372-55.092 23.372s-39.139-7.791-53.98-23.372l-327.216-328.329-327.216 328.329c-14.84 15.581-32.833 23.372-53.98 23.372s-39.511-7.791-55.092-23.372c-14.84-14.84-22.259-33.019-22.259-54.536s7.421-39.697 22.259-54.536l327.216-328.329-327.216-328.329c-14.84-15.581-22.259-33.946-22.259-55.092s7.421-39.511 22.259-55.092c15.581-14.84 33.946-22.259 55.092-22.259s39.139 7.421 53.98 22.259l327.216 328.329 327.216-328.329c14.84-14.84 32.833-22.259 53.98-22.259s39.139 7.421 53.98 22.259c15.581 15.581 23.372 33.946 23.372 55.092s-7.791 39.511-23.372 55.092l-326.103 328.329 327.216 328.329c14.84 14.84 22.259 33.019 22.259 54.536s-7.421 39.697-22.259 54.536z" />
<glyph unicode="&#xe90f;" glyph-name="up-arrow" d="M829.951 287.243l-318.662 268.871-317.239-268.871-36.987 44.1 354.227 303.013 355.649-303.013z" />
<glyph unicode="&#xe910;" glyph-name="telegram" horiz-adv-x="1220" d="M997.072 828.886l-840.408-324.147c-57.359-23.015-57.018-55.005-10.456-69.272l209.6-65.42 80.199-245.88c9.751-26.911 4.943-37.585 33.204-37.585 21.809 0 31.483 9.944 43.63 21.809 7.723 7.56 53.586 52.148 104.792 101.935l218.024-161.085c40.12-22.135 69.087-10.666 79.079 37.26l143.114 674.415c14.652 58.744-22.395 85.391-60.779 67.971zM388.705 385.078l472.441 298.065c23.585 14.303 45.208 6.614 27.454-9.146l-404.533-364.989-15.752-167.998-79.61 244.072z" />
<glyph unicode="&#xe911;" glyph-name="lin" horiz-adv-x="1019" d="M67.907 614.353h191.675v-614.207h-191.675zM161.097 921.455c30.357 0 56.302-10.767 77.835-32.299s32.299-47.478 32.299-77.835c0-29.651-10.767-55.244-32.299-76.775s-47.478-32.299-77.835-32.299c-30.357 0-56.302 10.767-77.835 32.299s-32.299 47.124-32.299 76.775c0 30.357 10.767 56.302 32.299 77.835s47.478 32.299 77.835 32.299zM375.010 609.057h181.086v-82.601c13.415 24.71 35.299 47.3 65.656 67.776s68.834 30.709 115.428 30.709c48.007 0 87.012-7.413 117.017-22.238s53.478-35.299 70.421-61.422c16.943-26.121 28.416-56.832 34.416-92.131s9.002-73.423 9.002-114.369v-334.636h-192.733v295.455c0 36.005-4.059 72.54-12.178 109.604s-36.887 55.595-86.307 55.595c-49.419 0-81.011-16.239-94.779-48.714s-20.649-69.186-20.649-110.134v-301.809h-191.675v608.912z" />
<glyph unicode="&#xe912;" glyph-name="instagram" d="M512 837.818c61.284 0 101.624-0.193 121.019-0.582s41.115-0.969 65.164-1.745c22.497-0.776 40.34-2.908 53.527-6.399s23.661-6.788 31.419-9.891c10.861-3.879 20.558-8.533 29.091-13.963s16.678-12.024 24.435-19.782c7.758-8.533 14.352-16.873 19.782-25.018s10.085-17.649 13.963-28.509c3.879-7.758 7.371-18.23 10.472-31.419s5.043-31.030 5.819-53.527c1.552-24.049 2.328-45.769 2.328-65.164s0-59.733 0-121.019c0-61.284 0-101.624 0-121.019s-0.776-41.115-2.328-65.164c-0.776-22.497-2.715-40.34-5.819-53.527s-6.595-24.049-10.472-32.582c-3.879-10.085-8.533-19.395-13.963-27.927s-12.024-16.678-19.782-24.436c-8.533-7.758-16.873-14.352-25.018-19.782s-17.649-10.472-28.509-15.128c-7.758-3.104-18.23-6.206-31.419-9.309s-31.030-5.043-53.527-5.819c-24.049-1.552-45.769-2.521-65.164-2.908s-59.733-0.582-121.019-0.582c-61.284 0-101.624 0.193-121.019 0.582s-41.115 1.358-65.164 2.908c-22.497 0.776-40.34 2.715-53.527 5.819s-23.661 6.206-31.419 9.309c-10.861 4.654-20.558 9.696-29.091 15.128s-16.678 12.024-24.435 19.782c-7.758 7.758-14.352 15.903-19.782 24.436s-10.085 17.843-13.963 27.927c-3.879 8.533-7.371 19.395-10.472 32.582s-5.043 31.030-5.819 53.527c-1.552 24.049-2.328 45.769-2.328 65.164s0 59.733 0 121.019c0 61.284 0 101.624 0 121.019s0.776 41.116 2.328 65.164c0.776 22.497 2.715 40.34 5.819 53.527s6.595 23.661 10.472 31.419c3.879 10.861 8.533 20.364 13.963 28.509s12.024 16.484 19.782 25.018c8.533 7.758 16.873 14.352 25.018 19.782s17.649 10.085 28.509 13.963c7.758 3.104 18.23 6.399 31.419 9.891s31.030 5.625 53.527 6.399c24.049 0.776 45.769 1.358 65.164 1.745s59.733 0.582 121.019 0.582zM512 921.599c-62.836 0-104.145-0.193-123.927-0.582s-41.697-1.358-65.745-2.908c-24.824-0.776-45.963-3.104-63.419-6.982s-33.551-8.533-48.291-13.963c-15.515-6.206-29.867-13.383-43.054-21.527s-25.987-18.812-38.401-32c-13.187-12.411-23.855-25.211-32-38.401s-15.322-27.539-21.527-43.054c-5.43-14.739-10.085-30.837-13.963-48.291s-6.206-38.594-6.982-63.419c-1.552-24.824-2.521-47.128-2.908-66.909s-0.582-60.704-0.582-122.764c0-62.836 0.193-104.145 0.582-123.927s1.358-41.697 2.908-65.745c0.776-24.824 3.104-46.158 6.982-63.999s8.533-33.745 13.963-47.709c6.206-15.515 13.383-29.867 21.527-43.054s18.812-26.376 32-39.564c12.411-12.411 25.211-22.886 38.401-31.419s27.539-15.515 43.054-20.945c14.739-6.206 30.837-11.055 48.291-14.546s38.594-6.012 63.419-7.564c24.049-0.776 45.963-1.358 65.745-1.745s61.091-0.582 123.927-0.582c62.836 0 104.145 0.193 123.927 0.582s41.697 0.969 65.745 1.745c24.824 1.552 45.963 4.073 63.419 7.564s33.551 8.34 48.291 14.546c15.515 5.43 29.867 12.411 43.054 20.945s25.987 19.006 38.401 31.419c13.187 13.187 23.855 26.376 32 39.564s15.322 27.539 21.527 43.054c5.43 13.963 10.085 29.867 13.963 47.709s6.206 39.177 6.982 63.999c1.552 24.049 2.521 45.963 2.908 65.745s0.582 61.091 0.582 123.927c0 62.060-0.193 102.982-0.582 122.764s-1.358 42.085-2.908 66.909c-0.776 24.824-3.104 45.963-6.982 63.419s-8.533 33.551-13.963 48.291c-6.206 15.515-13.383 29.867-21.527 43.054s-18.812 25.987-32 38.401c-12.411 13.187-25.211 23.855-38.401 32s-27.539 15.322-43.054 21.527c-14.739 5.43-30.837 10.085-48.291 13.963s-38.594 6.206-63.419 6.982c-24.049 1.552-45.963 2.521-65.745 2.908s-61.091 0.582-123.927 0.582zM512 697.018c-32.582 0-63.225-6.206-91.927-18.619s-53.721-29.285-75.054-50.618c-21.334-21.334-38.205-46.352-50.618-75.054s-18.619-59.345-18.619-91.927c0-32.582 6.206-63.225 18.619-91.927s29.285-53.721 50.618-75.054c21.334-21.334 46.352-38.205 75.054-50.618s59.345-18.619 91.927-18.619c32.582 0 63.225 6.206 91.927 18.619s53.721 29.285 75.054 50.618c21.334 21.334 38.205 46.352 50.618 75.054s18.619 59.345 18.619 91.927c0 32.582-6.206 63.225-18.619 91.927s-29.285 53.721-50.618 75.054c-21.334 21.334-46.352 38.205-75.054 50.618s-59.345 18.619-91.927 18.619zM512 307.199c-42.667 0-78.934 14.933-108.801 44.8s-44.8 66.133-44.8 108.801c0 41.891 14.933 77.964 44.8 108.218s66.133 45.382 108.801 45.382c42.667 0 78.934-15.128 108.801-45.382s44.8-66.327 44.8-108.218c0-42.667-14.933-78.934-44.8-108.801s-66.133-44.8-108.801-44.8zM813.382 706.327c0 15.515-5.43 28.702-16.291 39.564s-24.049 16.291-39.564 16.291c-14.739 0-27.539-5.43-38.401-16.291s-16.291-24.049-16.291-39.564c0-15.515 5.43-28.509 16.291-38.981s23.661-15.709 38.401-15.709c15.515 0 28.702 5.236 39.564 15.709s16.291 23.466 16.291 38.981z" />
<glyph unicode="&#xe913;" glyph-name="sms" horiz-adv-x="1170" d="M371.275 136.057l14.459-7.325c68.084-34.425 145.792-52.668 224.841-52.668 245.764 0 445.662 172.558 445.662 384.711 0 212.203-199.895 384.806-445.662 384.806s-445.71-172.606-445.71-384.806c0-88.146 35.478-174.328 99.971-242.652l6.512-6.991 0.334-9.529c1.101-34.281-5.075-80.821-35.526-125.539 58.413 1.006 112.134 41.656 122.426 49.842l12.689 10.15zM234.147 25.6c-18.816 0-37.106 3.018-54.342 9.002l-39.31 13.55 30.166 28.586c39.979 37.825 50.035 81.442 50.703 114.145-69.043 76.51-106.962 172.032-106.962 269.897 0 239.971 222.543 435.225 496.173 435.225 273.583 0 496.223-195.253 496.223-435.225 0-239.924-222.641-435.176-496.223-435.176-81.442 0-161.832 17.715-233.412 51.182-26.955-19.056-81.442-51.182-143.015-51.182zM376.365 326.57c-18.482 0-33.516 1.387-45.15 4.358-11.586 2.92-19.583 5.84-23.94 8.858-1.101 1.148-1.532 3.639-1.293 7.659 0.287 4.021 0.91 8.186 1.866 12.449 0.959 4.213 2.202 8.044 3.734 11.348s2.92 4.837 4.358 4.548c7.133-2.491 14.986-4.884 23.366-7.231 8.426-2.346 19.151-3.494 32.080-3.494 13.263 0 24.515 1.914 33.754 5.793s13.837 10.772 13.837 20.683c0 8.571-3.018 15.513-9.097 20.875-6.033 5.411-16.95 11.157-32.7 17.189-8.571 3.352-16.662 6.944-24.227 11.011-7.565 3.973-14.269 8.713-20.062 14.077-5.793 5.314-10.343 11.825-13.694 19.201-3.304 7.471-4.979 16.328-4.979 26.526 0 8.284 1.58 16.135 4.787 23.605 3.16 7.471 8.092 13.884 14.697 19.249 6.606 5.411 15.13 9.624 25.473 12.831 10.343 3.16 22.742 4.739 37.106 4.739 9.337 0 17.189-0.145 23.316-0.574 6.225-0.432 11.348-1.006 15.37-1.675 3.973-0.671 7.231-1.486 9.719-2.299 2.441-0.861 4.787-1.532 6.991-2.059 1.964-0.813 2.92-3.207 2.92-7.231s-0.574-8.332-1.675-12.879c-1.053-4.499-2.585-8.571-4.499-11.923-1.964-3.544-3.879-4.932-5.84-4.405-4.692 1.34-11.109 2.92-19.201 4.598-8.139 1.627-16.089 2.441-23.843 2.441-15.704 0-26.573-2.202-32.462-6.656-5.985-4.358-8.952-10.343-8.952-17.81 0-7.997 3.352-14.411 10.006-19.201 6.559-4.787 16.95-9.719 31.026-14.748 22.361-8.811 38.784-18.961 49.461-30.405 10.583-11.491 15.943-25.902 15.943-43.236 0-13.023-2.491-23.796-7.421-32.366-5.026-8.524-11.586-15.322-19.917-20.254-8.236-4.979-17.715-8.475-28.346-10.532-10.63-2.012-21.497-3.065-32.511-3.065zM671.334 334.375c-5.793 0-9.577 1.006-11.348 2.967-1.82 1.914-2.681 5.602-2.681 11.157v144.932c-11.059-17.908-19.535-31.84-25.52-41.656-5.985-9.767-10.198-16.996-12.976-21.497-2.778-4.548-4.453-7.231-5.075-8.044-0.479-0.861-0.719-1.437-0.719-1.772-2.539-4.071-4.26-6.752-5.218-8.044-0.959-1.246-2.967-1.82-5.985-1.82h-6.656c-3.592 0-5.937 0.574-7.038 1.82-1.101 1.293-2.778 3.973-4.979 8.044l-42.23 72.106v-146.607c0-3.592-0.574-6.418-1.866-8.475-1.246-2.059-4.453-3.112-9.671-3.112h-17.381c-3.879 0-7.278 0.621-10.15 1.866-2.92 1.246-4.405 5.314-4.405 12.257v198.7c0 5.553 1.053 9.192 3.112 10.965 2.106 1.82 5.026 2.681 8.905 2.681h20.732c2.967 0 5.553-0.334 7.613-1.198 2.106-0.861 4.26-2.92 6.464-6.225l55.013-87.763 55.061 86.948c1.675 3.018 3.686 5.172 6.033 6.418 2.393 1.246 4.598 1.82 6.846 1.82h22.789c5.218 0 8.236-1.101 9.097-3.304 0.813-2.202 1.246-5.793 1.246-10.725v-200.374c0-4.165-0.574-7.183-1.675-9.145-1.101-1.914-4.26-2.92-9.479-2.92h-17.859zM807.299 326.57c-18.53 0-33.516 1.387-45.15 4.358-11.586 2.92-19.583 5.84-23.94 8.858-1.101 1.148-1.58 3.639-1.293 7.659 0.24 4.021 0.861 8.186 1.82 12.449 1.006 4.213 2.251 8.044 3.783 11.348 1.437 3.304 2.873 4.837 4.31 4.548 7.183-2.491 15.036-4.884 23.366-7.231 8.426-2.346 19.103-3.494 32.126-3.494 13.216 0 24.419 1.914 33.754 5.793 9.24 3.879 13.837 10.772 13.837 20.683 0 8.571-3.018 15.513-9.097 20.875-6.129 5.411-16.996 11.157-32.7 17.189-8.571 3.352-16.662 6.944-24.227 11.011-7.613 3.973-14.269 8.713-20.156 14.077-5.793 5.314-10.246 11.825-13.598 19.201-3.304 7.471-4.979 16.328-4.979 26.526 0 8.284 1.58 16.135 4.739 23.605 3.207 7.471 8.044 13.884 14.748 19.249 6.559 5.411 15.082 9.624 25.424 12.831 10.343 3.16 22.742 4.739 37.058 4.739 9.385 0 17.189-0.145 23.414-0.574 6.178-0.432 11.251-1.006 15.322-1.675 3.973-0.671 7.231-1.486 9.671-2.299 2.539-0.813 4.884-1.532 7.086-2.059 1.914-0.813 2.92-3.207 2.92-7.231s-0.574-8.332-1.675-12.879c-1.101-4.499-2.633-8.571-4.548-11.923-1.914-3.544-3.879-4.932-5.793-4.405-4.692 1.34-11.157 2.92-19.249 4.598-8.186 1.627-16.135 2.441-23.796 2.441-15.801 0-26.573-2.202-32.462-6.656-5.985-4.358-8.952-10.343-8.952-17.81 0-7.997 3.352-14.411 9.911-19.201 6.656-4.787 16.996-9.719 31.073-14.748 22.361-8.811 38.83-18.961 49.508-30.405 10.583-11.491 15.896-25.902 15.896-43.236 0-13.023-2.491-23.796-7.421-32.366-4.979-8.524-11.636-15.322-19.869-20.254-8.332-4.979-17.763-8.475-28.393-10.532-10.677-2.012-21.449-3.065-32.462-3.065z" />
<glyph unicode="&#xe915;" glyph-name="tumblr" d="M629.45 0c45.146 0 87.998 7.23 128.558 21.691s69.306 31.213 86.234 50.26l4.232 9.523-57.138 167.178c0 0-0.176 0.882-0.53 2.646s-1.588 2.646-3.702 2.646h-124.856c0 0-0.882 0.176-2.646 0.53s-2.997 1.939-3.702 4.761c-1.411 2.821-2.293 5.29-2.646 7.407s-0.53 5.643-0.53 10.58v205.269c0 0 0.176 0.882 0.53 2.646s1.939 2.646 4.761 2.646h148.132c0 0 0.706 0.176 2.116 0.53s2.116 1.588 2.116 3.702v210.559c0 0-0.176 0.706-0.53 2.116s-1.588 2.116-3.702 2.116h-148.132c0 0-0.882 0.176-2.646 0.53s-2.646 1.939-2.646 4.761v205.269c0 0-0.176 0.706-0.53 2.116s-1.588 2.116-3.702 2.116h-263.465c-9.171 0-17.988-3.351-26.451-10.053s-13.756-16.047-15.871-28.039c-7.053-52.199-22.925-95.051-47.615-128.558s-59.959-57.313-105.81-71.421l-9.523-5.29c0 0-0.706-0.176-2.116-0.53s-2.116-1.588-2.116-3.702v-181.992c0 0 0.176-0.706 0.53-2.116s1.588-2.116 3.702-2.116h96.287c0 0 0-8.993 0-26.981s0-39.326 0-64.016c0-24.688 0-49.553 0-74.596s0-44.616 0-58.725c0.706-44.44 8.993-83.061 24.866-115.86s38.798-60.135 68.776-82.001c29.979-21.867 66.66-38.268 110.042-49.202s93.288-16.401 149.719-16.401zM805.094 86.764c-14.108-14.813-34.211-26.629-60.31-35.447s-53.61-13.226-82.531-13.226h-4.232c-46.557 0-85 7.936-115.332 23.807s-54.315 35.271-71.951 58.196c-17.635 22.925-29.979 47.439-37.034 73.538s-10.58 49.378-10.58 69.834v257.117c0 0-0.176 0.882-0.53 2.646s-1.588 2.646-3.702 2.646h-90.997c0 0-0.706 0.176-2.116 0.53s-2.116 1.588-2.116 3.702v119.565c0 0 0.176 0.882 0.53 2.646s1.588 2.646 3.702 2.646c47.967 19.046 85.352 46.733 112.158 83.061s43.734 83.413 50.788 141.255c0 2.116 0.706 3.351 2.116 3.702s2.116 0.53 2.116 0.53h119.565c0 0 0.882-0.176 2.646-0.53s2.646-1.588 2.646-3.702v-205.269c0 0 0.176-0.882 0.53-2.646s1.588-2.646 3.702-2.646h148.132c0 0 0.706-0.176 2.116-0.53s2.116-1.588 2.116-3.702v-138.609c0 0-0.176-0.882-0.53-2.646s-1.588-2.646-3.702-2.646h-148.132c0 0-0.706-0.176-2.116-0.53s-2.116-1.588-2.116-3.702v-244.418c0-28.215 6.878-48.672 20.633-61.37s33.683-19.046 59.782-19.046c9.875 0 20.633 1.058 32.271 3.175s23.102 5.643 34.389 10.58h5.29l32.801-118.506c0 2.116 0 2.646 0 1.588s0-1.588 0-1.588z" />
<glyph unicode="&#xe916;" glyph-name="youtube" d="M183.593 167.396c54.219-6.177 108.782-9.78 163.689-10.81s109.812-1.545 164.718-1.545c54.906 0 109.812 0.515 164.718 1.545s109.47 4.632 163.689 10.81c22.649 2.745 42.724 12.010 60.226 27.797s28.997 35.002 34.488 57.651c7.55 33.629 12.010 68.118 13.383 103.463s2.060 70.176 2.060 104.493c0 34.317-0.687 69.148-2.060 104.493s-5.835 69.491-13.383 102.435c-5.49 23.335-16.987 42.896-34.488 58.681s-37.577 25.052-60.226 27.797c-54.219 6.177-108.782 9.78-163.689 10.81s-109.812 1.545-164.718 1.545c-54.906 0-109.812-0.515-164.718-1.545s-109.47-4.632-163.689-10.81c-22.649-2.745-42.724-12.010-60.226-27.797s-28.997-35.346-34.488-58.681c-7.55-32.944-12.010-67.088-13.383-102.435s-2.060-70.176-2.060-104.493c0-34.317 0.687-69.148 2.060-104.493s5.835-69.833 13.383-103.463c5.49-22.649 16.987-41.866 34.488-57.651s37.577-25.052 60.226-27.797zM398.756 614.194c46.67-24.022 93.168-48.044 139.496-72.063s92.825-48.386 139.496-73.093c-46.67-24.022-93.168-48.044-139.496-72.063s-92.825-48.044-139.496-72.063z" />
<glyph unicode="&#xe918;" glyph-name="viber, vi" horiz-adv-x="1015" d="M867.877 241.136c-13.474 10.638-27.127 20.746-40.959 30.32s-27.838 19.326-42.021 29.255c-27.66 19.859-53.9 29.255-78.724 28.193s-47.873-17.198-69.149-48.406c-11.348-17.731-24.824-27.66-40.426-29.788s-31.916 0.708-48.936 8.51c-47.519 21.276-89.007 48.581-124.469 81.916s-63.83 73.759-85.108 121.278c-9.221 21.276-12.766 41.313-10.638 60.106s14.186 35.64 36.17 50.533c11.348 7.801 21.987 16.844 31.916 27.127s14.186 24.291 12.766 42.021c-0.708 10.638-7.093 26.952-19.15 48.936s-26.419 44.328-43.087 67.023c-16.668 22.695-33.512 43.263-50.533 61.702s-31.205 29.434-42.554 32.979c-8.51 3.545-17.198 5.319-26.065 5.319s-17.909-1.774-27.127-5.319c-51.064-17.022-85.995-44.858-104.789-83.513s-18.263-82.802 1.595-132.449c29.788-73.051 65.249-140.958 106.384-203.725s87.766-120.037 139.896-171.812c52.129-51.774 109.399-98.228 171.812-139.363s130.145-77.307 203.194-108.512c8.51-3.545 16.844-6.206 24.999-7.98s14.361-3.369 18.618-4.786c33.333-0.708 66.666 12.233 100.002 38.831s55.32 55.497 65.958 86.704c11.348 30.497 8.866 53.546-7.447 69.149s-33.687 30.851-52.129 45.745zM542.342 823.059c53.192-7.801 99.47-20.392 138.832-37.766s72.518-40.072 99.47-68.086c26.952-28.014 48.581-61.88 64.895-101.598s27.66-86.171 34.043-139.363c1.42-9.929 2.128-20.746 2.128-32.446s7.093-17.553 21.276-17.553c14.894-0.708 22.341 4.611 22.341 15.957s0 21.987 0 31.916c0.708 50.355-8.866 98.937-28.723 145.747s-47.165 88.477-81.916 125.002c-34.753 36.525-75 65.958-120.745 88.299s-94.151 34.22-145.214 35.64c-7.801-0.708-17.731-0.533-29.788 0.533s-18.439-6.914-19.15-23.937c-0.708-11.348 4.078-17.553 14.361-18.618s19.68-2.304 28.193-3.724zM583.832 764.549c-9.929 1.42-20.567 2.661-31.916 3.724s-18.085-5.497-20.213-19.68c-2.128-14.894 2.304-23.228 13.299-24.999s21.454-3.724 31.384-5.852c65.249-14.894 111.881-36.881 139.896-65.958s47.34-76.241 57.979-141.491c1.42-9.929 2.661-20.392 3.724-31.384s9.751-15.071 26.065-12.233c11.348 1.42 16.668 7.268 15.957 17.553s-0.354 18.972 1.063 26.065c0 31.205-6.206 61.347-18.618 90.427s-29.255 54.966-50.533 77.661c-21.276 22.695-46.453 41.667-75.533 56.915s-59.931 24.999-92.555 29.255zM596.598 662.418c-7.093 0-13.653-0.887-19.68-2.661s-10.462-6.206-13.299-13.299c-3.545-11.348-2.304-18.794 3.724-22.341s12.945-6.027 20.746-7.447c26.952-4.256 47.694-14.361 62.234-30.32s23.228-37.057 26.065-63.3c0.708-7.801 3.191-14.186 7.447-19.15s9.929-7.093 17.022-6.384c9.929 1.42 15.957 5.852 18.085 13.299s2.837 15.071 2.128 22.874c0.708 30.497-12.766 59.752-40.426 87.766s-55.674 41.667-84.043 40.959z" />
<glyph unicode="&#xe919;" glyph-name="whatsapp, wa" horiz-adv-x="1020" d="M834.858 787.658c-21.323 21.323-44.481 40.315-69.47 56.976s-51.145 30.653-78.466 41.982c-27.321 11.329-55.643 19.991-84.963 25.988s-59.307 8.996-89.961 8.996c-63.306 0-122.613-11.996-177.922-35.985s-103.621-56.642-144.937-97.958c-41.316-41.316-73.969-89.794-97.958-145.437s-35.985-114.783-35.985-177.423c0-39.983 5.164-79.299 15.493-117.948s25.489-75.301 45.48-109.952l-64.971-236.897 241.894 62.973c33.985-17.991 69.304-31.653 105.955-40.982s74.301-13.995 112.951-13.995c62.639 0 121.78 11.996 177.423 35.985s104.121 56.642 145.437 97.958c41.316 41.316 73.969 89.628 97.958 144.937s35.985 114.616 35.985 177.922c0 29.987-2.998 59.642-8.996 88.962s-14.661 57.807-25.988 85.463c-11.329 27.655-25.322 53.81-41.982 78.466s-35.65 47.979-56.976 69.97zM511.999 84.963c-33.985 0-67.471 4.498-100.456 13.493s-64.139 22.157-93.46 39.483l-12.994 7.997-143.937-37.984 37.984 140.939-8.996 13.995c-18.658 29.987-32.985 62.14-42.981 96.458s-14.993 69.47-14.993 105.453c0 51.977 9.996 101.123 29.987 147.436s47.147 86.628 81.464 120.948c34.318 34.318 74.468 61.307 120.447 80.965s95.292 29.488 147.935 29.488c50.644 0 99.123-9.495 145.437-28.487s87.129-46.48 122.446-82.465c35.985-35.985 63.473-76.966 82.465-122.947s28.487-94.626 28.487-145.936c0-51.977-9.829-100.956-29.488-146.936s-46.812-86.129-81.464-120.447c-34.652-34.318-74.967-61.474-120.948-81.464s-94.959-29.987-146.936-29.987zM719.908 368.84c-5.998 3.332-19.159 9.996-39.483 19.991s-33.152 15.66-38.483 16.993c-5.331 1.999-9.996 2.998-13.995 2.998s-7.997-2.666-11.996-7.997c-3.332-5.998-9.33-13.995-17.991-23.989s-14.661-16.993-17.991-20.991c-3.332-3.998-6.831-6.165-10.496-6.497s-8.163 0.834-13.493 3.499c-5.998 2.666-17.492 7.83-34.485 15.493s-36.152 21.491-57.475 41.481c-17.325 14.661-31.487 29.987-42.482 45.981s-18.158 26.989-21.491 32.985c-3.332 5.331-3.999 9.829-1.999 13.493s4.331 6.831 6.996 9.495c2.666 2.666 5.498 5.831 8.496 9.495s5.831 7.164 8.496 10.496c3.332 3.332 5.664 6.33 6.996 8.996s2.998 5.998 4.997 9.996c1.999 3.998 2.666 7.663 1.999 10.995s-1.665 6.33-2.998 8.996c-1.333 2.666-6.33 14.661-14.993 35.985s-15.327 37.65-19.991 48.979c-4.665 10.663-9.33 16.493-13.995 17.492s-8.663 1.5-11.996 1.5c-3.332 0-6.831 0.167-10.496 0.499s-7.497 0.499-11.494 0.499c-3.999 0-8.663-0.999-13.995-2.998s-10.663-5.998-15.993-11.996c-5.331-5.331-13.328-15.493-23.989-30.486s-15.993-36.484-15.993-64.472c0-27.988 6.996-53.644 20.991-76.966s22.324-36.983 24.99-40.982c1.333-1.999 6.996-9.662 16.993-22.99s23.323-28.988 39.983-46.98c16.659-17.991 36.651-36.484 59.974-55.476s49.311-34.485 77.966-46.48c13.995-5.998 26.323-10.828 36.983-14.494s19.991-6.831 27.988-9.495c13.995-4.665 27.154-6.996 39.483-6.996s23.157 0.666 32.485 1.999c11.329 1.999 25.821 8.163 43.48 18.493s28.821 22.157 33.486 35.485c4.665 13.328 7.331 25.155 7.997 35.485s0.333 16.826-0.999 19.491c-1.333 1.999-3.831 3.999-7.497 5.998s-8.496 4.331-14.494 6.996z" />
<glyph unicode="&#xe91a;" glyph-name="heart" d="M512 30.014c11.221 0 22.091 2.28 32.611 6.839s19.637 11.047 27.352 19.461l315.593 332.426c26.65 28.053 46.989 59.964 61.015 95.73s21.040 73.288 21.040 112.562c0 39.274-7.013 76.794-21.040 112.562s-34.015 67.677-59.964 95.73c-26.65 27.352-57.157 48.567-91.522 63.645s-70.482 22.618-108.354 22.618c-36.469 0-71.711-7.189-105.724-21.565s-63.996-35.242-89.944-62.592h38.923c-26.65 27.352-56.983 48.216-90.995 62.592s-69.607 21.565-106.777 21.565c-37.17 0-72.938-7.363-107.301-22.091s-64.522-36.119-90.471-64.172c-26.65-28.053-46.989-59.964-61.015-95.73s-21.040-73.288-21.040-112.562c0-38.573 7.013-75.743 21.040-111.509s34.365-67.677 61.015-95.73l316.646-333.479c7.715-8.416 16.656-14.902 26.826-19.461s20.864-6.839 32.085-6.839z" />
<glyph unicode="&#xe91b;" glyph-name="heart-o" d="M512 30.014c11.221 0 22.091 2.28 32.611 6.839s19.637 11.047 27.352 19.461l315.593 332.426c26.65 28.053 46.989 59.964 61.015 95.73s21.040 73.288 21.040 112.562c0 39.274-7.013 76.794-21.040 112.562s-34.015 67.677-59.964 95.73c-26.65 27.352-57.157 48.567-91.522 63.645s-70.482 22.618-108.354 22.618c-36.469 0-71.711-7.189-105.724-21.565s-63.996-35.242-89.944-62.592h38.923c-26.65 27.352-56.983 48.216-90.995 62.592s-69.607 21.565-106.777 21.565c-37.17 0-72.938-7.363-107.301-22.091s-64.522-36.119-90.471-64.172c-26.65-28.053-46.989-59.964-61.015-95.73s-21.040-73.288-21.040-112.562c0-38.573 7.013-75.743 21.040-111.509s34.365-67.677 61.015-95.73l316.646-333.479c7.715-8.416 16.656-14.902 26.826-19.461s20.864-6.839 32.085-6.839zM175.366 426.611c-21.741 23.144-38.397 49.267-49.97 78.373s-17.358 59.787-17.358 92.049c0 32.962 5.786 63.996 17.358 93.1s28.228 55.229 49.97 78.373c21.040 22.442 45.41 39.624 73.112 51.548s56.28 17.883 85.736 17.883c30.157 0 58.736-5.786 85.736-17.358s51.371-28.228 73.112-49.97c4.909-5.611 11.221-8.416 18.936-8.416s14.378 2.805 19.987 8.416c21.040 21.741 45.059 38.397 72.061 49.97s55.229 17.358 84.685 17.358c30.157 0 59.087-5.962 86.788-17.883s52.073-29.456 73.112-52.599c21.741-22.442 38.397-48.391 49.97-77.847s17.358-60.314 17.358-92.575c0-32.261-5.786-63.119-17.358-92.575s-28.228-55.405-49.97-77.847l-315.593-333.479c-2.805-2.805-5.962-5.085-9.467-6.839s-7.363-2.631-11.571-2.631c-3.507 0-7.013 0.877-10.52 2.631s-6.662 4.032-9.467 6.839z" />
<glyph unicode="&#xe92a;" glyph-name="ulike" d="M635.591 690.4c9.234 0.711 18.467 1.243 27.701 1.598s18.822 0.532 28.767 0.532c85.235 0 146.142-20.421 182.722-61.263s56.646-99.619 60.198-176.329c0.711-10.654 1.066-21.308 1.066-31.962s0-25.215 0-43.682c0-8.523-0.177-15.093-0.532-19.711s-0.532-9.056-0.532-13.318c0-50.43-6.038-96.777-18.113-139.040s-31.076-78.665-57-109.207c-25.926-30.542-58.954-54.514-99.085-71.918s-87.543-26.103-142.235-26.103c-53.271 0-97.31 3.729-132.113 11.187s-71.739 20.065-110.805 37.823c-3.552 1.42-5.859 2.309-6.925 2.664s-3.375 1.598-6.925 3.729c-10.654 4.261-19.711 7.991-27.169 11.187s-14.738 5.859-21.842 7.991l-15.981 5.327v545.501l18.113 4.261c9.234 1.42 18.822 3.375 28.767 5.859s20.599 5.15 31.962 7.991l5.327-22.374-9.588 20.242c17.047 9.234 32.319 21.842 45.814 37.823s25.57 35.337 36.225 58.066c4.972 9.945 9.411 20.065 13.318 30.365s7.636 21.131 11.187 32.496c1.42 4.261 2.664 8.523 3.729 12.786s2.309 8.879 3.729 13.851c0.711 2.132 1.598 5.504 2.664 10.122s1.598 7.281 1.598 7.991c4.972 22.020 16.515 40.31 34.626 54.87s38.889 21.842 62.327 21.842c26.991 0 50.253-9.411 69.786-28.233s29.299-41.373 29.299-67.654c0-29.833-2.309-60.375-6.925-91.628s-11.543-56.823-20.776-76.711l-21.308 9.588-1.066 23.44zM178.52 665.896c25.57 0 47.234-8.879 64.991-26.635s26.635-39.421 26.635-64.991v-465.595c0-25.57-8.879-47.234-26.635-64.991s-39.421-26.635-64.991-26.635c-24.86 0-46.169 8.879-63.927 26.635s-26.635 39.421-26.635 64.991v465.595c0 25.57 8.879 47.234 26.635 64.991s39.067 26.635 63.927 26.635z" />
<glyph unicode="&#xe92b;" glyph-name="ulike-o" d="M635.591 690.4c9.234 0.711 18.467 1.243 27.701 1.598s18.822 0.532 28.767 0.532c85.235 0 146.142-20.421 182.722-61.263s56.646-99.619 60.198-176.329c0.711-10.654 1.066-21.308 1.066-31.962s0-25.215 0-43.682c0-8.523-0.177-15.093-0.532-19.711s-0.532-9.056-0.532-13.318c0-50.43-6.038-96.777-18.113-139.040s-31.076-78.665-57-109.207c-25.926-30.542-58.954-54.514-99.085-71.918s-87.543-26.103-142.235-26.103c-53.271 0-97.31 3.729-132.113 11.187s-71.739 20.065-110.805 37.823c-3.552 1.42-5.859 2.309-6.925 2.664s-3.375 1.598-6.925 3.729c-10.654 4.261-19.711 7.991-27.169 11.187s-14.738 5.859-21.842 7.991l-15.981 5.327v545.501l18.113 4.261c9.234 1.42 18.822 3.375 28.767 5.859s20.599 5.15 31.962 7.991l5.327-22.374-9.588 20.242c17.047 9.234 32.319 21.842 45.814 37.823s25.57 35.337 36.225 58.066c4.972 9.945 9.411 20.065 13.318 30.365s7.636 21.131 11.187 32.496c1.42 4.261 2.664 8.523 3.729 12.786s2.309 8.879 3.729 13.851c0.711 2.132 1.598 5.504 2.664 10.122s1.598 7.281 1.598 7.991c4.972 22.020 16.515 40.31 34.626 54.87s38.889 21.842 62.327 21.842c26.991 0 50.253-9.411 69.786-28.233s29.299-41.373 29.299-67.654c0-29.833-2.309-60.375-6.925-91.628s-11.543-56.823-20.776-76.711l-21.308 9.588-1.066 23.44zM889.163 452.809c-2.841 65.347-18.645 113.823-47.412 145.431s-78.665 47.412-149.694 47.412c-9.234 0-18.29-0.177-27.169-0.532s-17.936-0.532-27.169-0.532l-38.355-2.132 15.981 35.16c7.813 15.627 13.672 37.467 17.579 65.525s5.859 55.58 5.859 82.572c0 13.495-4.972 25.038-14.915 34.626s-22.374 14.384-37.29 14.384c-12.075 0-23.085-3.729-33.028-11.187s-15.981-17.224-18.113-29.299c-0.711-1.42-1.598-4.439-2.664-9.056s-1.953-7.991-2.664-10.122c-1.42-4.972-2.664-9.766-3.729-14.384s-2.309-9.056-3.729-13.318c-4.261-12.786-8.523-24.86-12.786-36.225s-8.879-22.729-13.851-34.094c-12.786-26.281-27.701-49.365-44.748-69.254s-36.935-35.515-59.664-46.88l-4.261-2.132c-12.075-2.841-23.085-5.504-33.028-7.991s-19.888-4.795-29.833-6.925l-4.261 22.374h22.374v-509.278l-14.915 21.308c7.813-2.132 15.804-4.972 23.972-8.523s17.936-7.813 29.299-12.786c3.552-1.42 5.859-2.309 6.925-2.664s3.375-1.243 6.925-2.664c36.225-16.336 70.14-27.878 101.748-34.626s72.272-10.122 121.993-10.122c47.589 0 88.431 7.281 122.525 21.842s62.15 34.983 84.169 61.263c22.020 26.281 38.178 57.711 48.478 94.292s15.449 77.245 15.449 121.993c0 4.261 0 8.702 0 13.318s0 11.543 0 20.776c0.711 17.757 0.889 31.785 0.532 42.085s-0.532 20.421-0.532 30.365zM133.772 108.675c0-12.786 4.439-23.617 13.318-32.496s19.356-13.318 31.431-13.318c12.786 0 23.617 4.439 32.496 13.318s13.318 19.711 13.318 32.496v465.595c0 12.786-4.439 23.44-13.318 31.962s-19.711 12.786-32.496 12.786c-12.075 0-22.551-4.261-31.431-12.786s-13.318-19.179-13.318-31.962zM178.52 665.896c25.57 0 47.234-8.879 64.991-26.635s26.635-39.421 26.635-64.991v-465.595c0-25.57-8.879-47.234-26.635-64.991s-39.421-26.635-64.991-26.635c-24.86 0-46.169 8.879-63.927 26.635s-26.635 39.421-26.635 64.991v465.595c0 25.57 8.879 47.234 26.635 64.991s39.067 26.635 63.927 26.635z" />
</font>
</defs>
</svg>
